{"asset":{"version":"2.0","generator":"THREE.GLTFExporter r164"},"scenes":[{"nodes":[1,4,7]}],"scene":0,"nodes":[{"mesh":0},{"matrix":[1,0,0,0,0,2.220446049250313e-16,-1,0,0,1,2.220446049250313e-16,0,0,-99,0,1],"name":"background","children":[0]},{"matrix":[1,0,0,0,0,9.999999996956888e-7,-0.9999999999995001,0,0,0.9999999999995001,9.999999996956888e-7,0,0,0.9999999999994998,9.99999999999833e-7,1],"camera":0},{},{"children":[2,3]},{"matrix":[0.8253356149096783,0.5646424733950353,-5.551115123125783e-17,0,-5.551115123125783e-17,2.220446049250313e-16,1,0,0.5646424733950353,-0.8253356149096782,1.1102230246251565e-16,0,0,-1.3877787807814457e-17,3.8163916471489756e-17,1],"extras":{"id":"04343","decal":false},"mesh":1},{"matrix":[0.03397815548417706,-0.036680852633126225,0,0,0.036680852633126225,0.03397815548417706,0,0,0,0,0.05,0,0,0,-1.734723475976807e-18,1],"children":[5]},{"children":[6]}],"bufferViews":[{"buffer":0,"byteOffset":0,"byteLength":48,"target":34962,"byteStride":12},{"buffer":0,"byteOffset":48,"byteLength":48,"target":34962,"byteStride":12},{"buffer":0,"byteOffset":96,"byteLength":32,"target":34962,"byteStride":8},{"buffer":0,"byteOffset":128,"byteLength":12,"target":34963},{"buffer":0,"byteOffset":140,"byteLength":574272,"target":34962,"byteStride":12},{"buffer":0,"byteOffset":574412,"byteLength":382848,"target":34962,"byteStride":8},{"buffer":0,"byteOffset":957260,"byteLength":574272,"target":34962,"byteStride":12}],"buffers":[{"byteLength":1531532,"uri":"data:application/octet-stream;base64,"}],"accessors":[{"bufferView":0,"componentType":5126,"count":4,"max":[74.60922241210938,46.63076400756836,0],"min":[-74.60922241210938,-46.63076400756836,0],"type":"VEC3"},{"bufferView":1,"componentType":5126,"count":4,"max":[0,0,1],"min":[0,0,1],"type":"VEC3"},{"bufferView":2,"componentType":5126,"count":4,"max":[1,1],"min":[0,0],"type":"VEC2"},{"bufferView":3,"componentType":5123,"count":6,"max":[3],"min":[0],"type":"SCALAR"},{"bufferView":4,"componentType":5126,"count":47856,"max":[5.233937740325928,2.684157371520996,2],"min":[-5.233937740325928,-2.684157371520996,-2],"type":"VEC3"},{"bufferView":5,"componentType":5126,"count":47856,"max":[1,1],"min":[0,0],"type":"VEC2"},{"bufferView":6,"componentType":5126,"count":47856,"max":[1,0.9999920129776001,1],"min":[-0.9999922513961792,-0.9996423721313477,-1],"type":"VEC3"}],"materials":[{"pbrMetallicRoughness":{"baseColorFactor":[0.004776953478513362,0.004776953478513362,0.004776953478513362,1],"metallicFactor":0,"roughnessFactor":0.9},"extensions":{"KHR_materials_unlit":{}}},{"pbrMetallicRoughness":{"metallicFactor":0,"roughnessFactor":0.1,"baseColorTexture":{"index":0,"texCoord":0}},"doubleSided":true,"extensions":{"KHR_materials_ior":{"ior":1.2}}}],"meshes":[{"primitives":[{"mode":4,"attributes":{"POSITION":0,"NORMAL":1,"TEXCOORD_0":2},"indices":3,"material":0}]},{"primitives":[{"mode":4,"attributes":{"POSITION":4,"TEXCOORD_0":5,"NORMAL":6},"material":1}]}],"cameras":[{"type":"perspective","perspective":{"aspectRatio":1.6,"yfov":0.8726646259971648,"zfar":2000,"znear":0.1}}],"textures":[{"sampler":0,"source":0}],"samplers":[{"magFilter":9729,"minFilter":9987,"wrapS":33071,"wrapT":33071}],"images":[{"mimeType":"image/png","uri":"data:image/png;base64,"}],"extensionsUsed":["KHR_materials_unlit","KHR_materials_ior"]}